PathFileType	4	(X/Y/Z)	C:\Users\WrightLab\Desktop\Jo\P5V119.trc
DataRate	CameraRate	NumFrames	NumMarkers	Units	OrigDataRate	OrigDataStartFrame	OrigNumFrames
100.00	100.00	       16	19	mm	100.00	285	       569
Frame#	Time	Headset_Front			Headset_Back			Headset_Left			Headset_Right			Left_Shoulder			Right_Shoulder			Sternum			C7			Left Elbow			Right Elbow			Left Wrist			Right Wrist			Left ASIS			Right ASIS			S2			Left Knee			Right Knee			Left Ankle			Right Ankle			
		X1	Y1	Z1	X2	Y2	Z2	X3	Y3	Z3	X4	Y4	Z4	X5	Y5	Z5	X6	Y6	Z6	X7	Y7	Z7	X8	Y8	Z8	X9	Y9	Z9	X10	Y10	Z10	X11	Y11	Z11	X12	Y12	Z12	X13	Y13	Z13	X14	Y14	Z14	X15	Y15	Z15	X16	Y16	Z16	X17	Y17	Z17	X18	Y18	Z18	X19	Y19	Z19	

285	2.840	-314.08331	1641.10754	76.01060							-486.81754	1618.89099	227.13196	-302.05286	1484.07788	-77.30755	-647.14215	1457.41138	141.63383	-432.98819	1317.21985	122.50959	-542.48273	1507.21912	-63.94061	-239.50259	1212.84875	-149.45483	-781.51935	1207.51904	107.08798	-211.69550	1153.15344	59.00224	-642.58221	1058.07642	239.64941	-341.26794	917.91846	54.74857	-566.91791	956.51483	209.05139	-586.19354	968.16266	-127.34475	-448.39926	464.70895	-13.28770	-554.15100	533.54413	251.16702	-600.36859	165.54123	-291.24622	-616.69653	103.52513	228.62782	
286	2.850	-311.42368	1642.56042	81.53452							-482.55576	1619.25378	236.59390	-299.87256	1485.62769	-68.11668	-643.18182	1458.10706	152.94284	-428.81015	1318.17212	132.75354	-540.18158	1507.66760	-53.51804	-238.23163	1216.14380	-143.02051	-775.00800	1207.15466	120.31512	-208.70256	1154.83862	65.70542	-636.34106	1057.69043	251.43916	-338.07870	919.23529	64.50858	-558.23047	958.95557	220.47153	-582.29279	969.45062	-117.65217	-437.71136	461.50064	6.29097	-549.51550	534.97314	259.53589	-596.33014	173.75142	-277.38699	-616.16229	103.65289	228.76964	
287	2.860	-308.02725	1643.53943	89.25594							-477.64413	1620.68542	246.38486	-297.96234	1487.23730	-60.18721	-639.05157	1459.04236	165.34142	-423.86270	1319.39136	142.32396	-538.19415	1508.42053	-43.44842	-235.48105	1218.50159	-138.41370	-768.80414	1207.07275	132.74770	-205.12816	1156.75073	71.31850	-629.84967	1058.46875	263.34042	-332.45978	921.89514	73.96613	-553.25623	959.10645	228.32225	-577.99524	970.40356	-106.96933	-426.86700	457.53409	26.18474	-546.89337	537.49347	267.83057	-592.00848	184.11053	-261.98569	-615.12946	103.92638	228.78694	
288	2.870	-305.04916	1645.03687	97.73607							-471.91742	1622.17419	256.36536	-296.46896	1489.05530	-52.28131	-633.76740	1458.10193	171.69214	-419.10583	1320.90356	151.09723	-536.54437	1509.26575	-32.45974	-234.40501	1221.33459	-130.40265	-764.47064	1207.01904	144.18628	-201.17744	1158.32861	76.87239	-623.47876	1058.24316	275.02847	-325.78201	924.08173	82.02277	-546.80414	959.11157	238.99185	-573.74408	971.51129	-96.40427	-415.71887	454.52515	46.00650	-545.19684	539.33240	276.38278	-586.61517	193.53680	-245.31830	-614.85303	103.99232	228.96715	
289	2.880	-301.39001	1646.41223	104.63375							-465.70886	1624.79175	266.29626	-295.32889	1491.71484	-45.79749	-627.52753	1460.29834	190.16805	-414.02252	1321.69189	159.90173	-534.61774	1510.12390	-20.96298	-231.08353	1223.06946	-125.26348	-759.42316	1206.97668	157.62578	-197.26451	1160.24927	82.72266	-616.72284	1059.41052	286.62476	-320.18814	926.30664	89.07845	-540.69464	958.65503	247.54691	-570.01276	972.96307	-86.27633	-405.41821	453.41003	65.00363	-543.15680	539.69995	282.22958	-580.98230	203.08018	-228.39572	-614.59369	104.57898	229.67349	
290	2.890	-297.84869	1648.22974	110.88016							-459.26865	1626.46680	275.81381	-293.42529	1493.82678	-38.32317	-622.22772	1459.92358	202.33720	-408.33371	1322.36780	167.24802	-533.33734	1511.92395	-11.01858	-228.93254	1226.13647	-120.95228	-755.15466	1206.67908	170.50980	-192.36612	1162.06873	87.23190	-610.28925	1059.48621	298.56702	-316.45648	927.17963	95.33030	-532.42249	960.22424	257.56110	-565.65845	974.82001	-76.14860	-394.01462	455.22290	82.97566	-542.37415	540.01184	289.16202	-576.08368	212.21432	-210.98103	-615.54669	105.40270	230.22466	
291	2.900	-294.99573	1650.63721	115.62543							-453.35648	1627.80408	285.09930	-292.09525	1496.56726	-32.30083	-616.50256	1459.70850	214.19798	-403.26559	1324.02747	174.99551	-531.90179	1513.68225	-0.86658	-226.64310	1229.96606	-117.15974	-750.52722	1207.11353	181.75429	-187.71605	1164.32788	92.80931	-603.66162	1060.94238	310.14124	-308.91418	929.82507	100.92742	-527.95471	959.09198	264.61920	-561.34760	975.56836	-65.48386	-382.18076	458.60580	98.63239	-541.53949	539.09412	295.74429	-570.05487	222.68155	-192.75298	-614.80890	105.22104	230.42088	
292	2.910	-291.11597	1652.13391	123.21975							-447.82803	1629.19189	294.58957	-290.12143	1500.06824	-27.07701	-609.95270	1459.41858	225.11211	-397.37146	1325.32129	181.59743	-530.11432	1515.59497	9.60603	-224.57118	1233.61670	-110.87972	-744.72253	1206.91553	195.72224	-184.13530	1166.70447	97.91384	-596.56549	1061.00000	322.83029	-304.71280	931.29822	106.20905	-523.16992	958.54993	271.07333	-557.21692	977.17181	-55.82681	-371.50800	462.16489	114.50709	-541.75342	538.21777	301.92419	-565.60339	231.67204	-175.87646	-614.73663	105.79702	231.17610	
293	2.920	-287.43185	1654.15088	128.88110							-440.99472	1630.09827	303.18716	-288.22821	1502.53870	-19.88275	-604.04742	1459.83411	237.14963	-391.51282	1326.26868	187.81258	-528.65387	1517.79077	19.74456	-222.11983	1236.99902	-105.10356	-738.95911	1207.80505	208.23622	-179.44907	1168.96179	102.04237	-589.73389	1062.21509	334.19116	-298.08865	934.26306	111.19466	-516.03644	959.72760	279.35529	-553.28888	978.49237	-46.08192	-358.08255	467.75946	130.02203	-541.99554	536.90045	307.79184	-561.44879	241.12952	-158.47293	-614.59186	106.48832	232.05122	
294	2.930	-284.26724	1656.13086	136.04024							-434.34985	1631.59387	312.32077	-285.60626	1506.94592	-14.85313	-597.94073	1460.18213	248.17049	-385.17776	1328.01672	194.86456	-526.32764	1519.68665	29.29554	-219.65842	1239.94653	-100.03821	-732.39954	1208.38318	220.59021	-174.66466	1171.27405	106.54195	-581.84747	1063.21790	345.97366	-292.97995	935.87225	115.93251	-510.84131	958.82965	284.42236	-548.65674	979.41931	-36.01460	-347.04886	471.51447	143.98027	-542.68787	535.75232	314.06406	-557.30225	249.60411	-141.02144	-614.31238	107.09308	232.91016	
295	2.940										-428.14789	1633.70435	321.13422	-283.20380	1509.42395	-8.04474	-591.16614	1460.45874	258.12527	-378.91782	1329.92969	201.41873	-523.60303	1521.34705	39.11743	-216.64462	1242.70251	-93.08862	-724.01508	1208.70105	234.17029	-170.69298	1173.53455	111.44753	-574.09265	1064.17493	357.01147	-287.05539	937.86090	119.96842	-503.19958	960.66071	292.08917	-544.51678	981.34576	-27.46007	-333.08139	477.52179	158.17123	-543.56378	532.86163	319.03528	-551.41614	255.96715	-123.47740	-614.03705	107.74909	233.79402	
296	2.950										-421.08029	1635.06177	329.23575	-280.94962	1512.49109	-2.62957	-585.07330	1461.21594	269.39526	-373.28589	1331.67285	208.49380	-520.54877	1522.84583	48.63144	-214.30032	1245.73071	-88.44735	-717.34833	1210.12402	247.36621	-164.61014	1176.81567	116.05323	-566.15326	1065.65210	369.39804	-281.14325	939.70197	124.08717	-496.50323	961.75446	297.05768	-540.66919	982.96881	-19.04746	-320.12039	483.01447	170.39911	-545.45056	530.42236	323.97720	-545.21875	261.11710	-104.21505	-614.03912	109.14990	234.67059	
297	2.960										-415.14981	1636.42371	337.69476	-278.00595	1514.33521	4.34604	-577.73840	1462.12305	278.56445	-366.94525	1332.90601	215.61510	-517.05444	1524.49182	58.82211	-211.67712	1249.23193	-85.27847	-710.42334	1210.82800	260.49478	-161.90610	1178.49609	118.74858	-558.27130	1066.37427	380.79871	-275.06784	942.48688	129.16481	-489.28369	963.41400	303.68024	-536.31335	984.84412	-10.02285	-307.17453	488.72586	182.78796	-546.22375	528.51294	330.74435	-537.56732	264.74213	-84.90491	-612.06952	109.03131	234.75145	
298	2.970										-409.07748	1637.28381	346.07462	-275.41998	1516.62610	10.48264	-572.59113	1463.74109	290.34491	-361.66949	1334.14697	221.91702	-513.57739	1525.81799	67.96705	-209.20781	1251.54346	-80.80029	-704.12927	1211.89331	273.34756	-156.46735	1180.42883	122.56596	-550.46106	1067.54358	391.47705	-269.05850	944.37305	133.28180	-483.03201	963.99255	308.90308	-532.61273	986.20642	-1.55379	-294.67990	495.17584	193.37442	-547.66272	525.65967	335.91583	-528.78284	266.30588	-65.05773	-611.44293	109.98482	235.36684	
299	2.980	-265.38614	1573.43042	363.46545							-402.79852	1638.19226	353.80353	-272.38110	1518.50244	17.86325	-564.46783	1464.20361	298.65454	-356.04352	1336.03772	230.81589	-509.96548	1527.10339	76.90504	-206.30165	1254.03967	-74.29383	-697.00818	1212.75952	285.92526	-151.83015	1183.03918	126.27979	-540.72778	1069.40259	401.73822	-262.76181	945.65051	137.80035	-476.14969	965.37573	314.60059	-528.48340	988.23804	6.65658	-282.73996	501.60474	203.35387	-548.46655	523.77002	341.23343	-519.66632	266.54309	-45.55735	-611.18073	110.80035	235.93625	
300	2.990										-396.48724	1639.43079	361.50165	-269.32254	1520.32666	23.58416	-559.25531	1467.10498	310.13403	-350.60849	1337.19922	238.53593	-506.23166	1528.27075	86.49623	-203.60658	1256.13098	-70.12392	-690.15967	1213.24500	298.96851	-147.06595	1184.77161	130.06874	-532.23975	1070.33997	413.35327	-256.72617	947.39514	142.26776	-472.57767	963.36108	320.51749	-524.41022	989.92041	13.52086	-271.38599	507.40842	211.79201	-549.54193	523.14044	346.70822	-509.58209	266.42764	-26.69677	-610.46954	111.50193	236.49486	
